<svg width="63" height="51" viewBox="0 0 63 51" fill="none" xmlns="http://www.w3.org/2000/svg">
<path d="M59.5703 36.7734C59.8633 35.4062 59.8633 33.9414 59.5703 32.5742L62.1094 31.1094C62.4023 31.0117 62.5 30.6211 62.4023 30.3281C61.7188 28.1797 60.6445 26.3242 59.1797 24.6641C58.9844 24.4688 58.5938 24.3711 58.3008 24.5664L55.7617 26.0312C54.6875 25.1523 53.5156 24.3711 52.1484 23.9805V21.0508C52.1484 20.6602 51.9531 20.3672 51.5625 20.3672C49.4141 19.8789 47.168 19.8789 45.1172 20.3672C44.8242 20.3672 44.6289 20.6602 44.6289 21.0508V23.9805C43.2617 24.3711 42.0898 25.1523 41.0156 26.0312L38.4766 24.5664C38.1836 24.3711 37.793 24.4688 37.5977 24.6641C36.1328 26.3242 34.9609 28.1797 34.375 30.3281C34.2773 30.6211 34.375 31.0117 34.668 31.1094L37.207 32.5742C36.9141 33.9414 36.9141 35.4062 37.207 36.7734L34.668 38.2383C34.375 38.3359 34.2773 38.7266 34.375 39.0195C34.9609 41.168 36.1328 43.0234 37.5977 44.6836C37.793 44.8789 38.1836 44.9766 38.4766 44.7812L41.0156 43.3164C42.0898 44.1953 43.2617 44.9766 44.6289 45.3672V48.2969C44.6289 48.6875 44.8242 48.9805 45.1172 48.9805C47.3633 49.4688 49.5117 49.4688 51.6602 48.9805C51.9531 48.9805 52.1484 48.6875 52.1484 48.2969V45.3672C53.5156 44.9766 54.6875 44.1953 55.7617 43.3164L58.3008 44.7812C58.5938 44.9766 58.9844 44.8789 59.1797 44.6836C60.6445 43.0234 61.7188 41.168 62.4023 39.0195C62.5 38.7266 62.4023 38.3359 62.1094 38.2383L59.5703 36.7734ZM48.4375 39.4102C45.8008 39.4102 43.6523 37.2617 43.6523 34.625C43.6523 32.0859 45.8008 29.9375 48.4375 29.9375C50.9766 29.9375 53.125 32.0859 53.125 34.625C53.125 37.2617 50.9766 39.4102 48.4375 39.4102ZM41.5039 48.2969C41.5039 48.8828 41.6016 49.4688 41.8945 49.957C41.5039 50.1523 41.0156 50.25 40.625 50.25H3.125C1.36719 50.25 0 48.8828 0 47.125C0 37.6523 7.61719 29.9375 17.1875 29.9375H26.4648C28.0273 29.9375 29.5898 30.2305 31.1523 30.6211C31.1523 31.9883 31.8359 33.1602 33.0078 33.8438L33.7891 34.332C33.7891 34.5273 33.7891 34.8203 33.7891 35.0156L33.0078 35.5039C32.7148 35.6992 32.4219 35.8945 32.2266 36.1875C30.5664 35.2109 28.6133 34.625 26.5625 34.625H17.1875C10.7422 34.625 5.46875 39.4102 4.78516 45.5625H34.375C34.668 45.9531 34.9609 46.4414 35.2539 46.7344C36.0352 47.5156 37.1094 48.0039 38.0859 48.0039C38.7695 48.0039 39.4531 47.8086 40.0391 47.5156L40.8203 47.0273C41.0156 47.2227 41.2109 47.3203 41.5039 47.418V48.2969ZM21.875 25.25C28.7109 25.25 34.375 19.6836 34.375 12.75C34.375 5.91406 28.7109 0.25 21.875 0.25C14.9414 0.25 9.375 5.91406 9.375 12.75C9.375 19.6836 14.9414 25.25 21.875 25.25ZM21.875 4.9375C26.1719 4.9375 29.6875 8.45312 29.6875 12.75C29.6875 17.1445 26.1719 20.5625 21.7773 20.5625C17.4805 20.5625 14.0625 17.1445 14.0625 12.75C14.0625 8.45312 17.4805 4.9375 21.875 4.9375Z" fill="#3CD2A3"/>
</svg>
