<svg width="50" height="45" viewBox="0 0 50 45" fill="none" xmlns="http://www.w3.org/2000/svg">
<path d="M37.5 19.9062C38.7695 19.9062 39.8438 20.9805 39.8438 22.25C39.8438 23.6172 38.7695 24.5938 37.5 24.5938H12.5C11.1328 24.5938 10.1562 23.6172 10.1562 22.25C10.1562 20.9805 11.1328 19.9062 12.5 19.9062H37.5ZM37.5 29.2812C38.7695 29.2812 39.8438 30.3555 39.8438 31.625C39.8438 32.9922 38.7695 33.9688 37.5 33.9688H12.5C11.1328 33.9688 10.1562 32.9922 10.1562 31.625C10.1562 30.3555 11.1328 29.2812 12.5 29.2812H37.5ZM0 6.625C0 3.20703 2.73438 0.375 6.25 0.375H43.75C47.168 0.375 50 3.20703 50 6.625V37.875C50 41.3906 47.168 44.125 43.75 44.125H6.25C2.73438 44.125 0 41.3906 0 37.875V6.625ZM4.6875 16V37.875C4.6875 38.7539 5.37109 39.4375 6.25 39.4375H43.75C44.5312 39.4375 45.3125 38.7539 45.3125 37.875V16H4.6875ZM42.5781 6.625H35.4492C34.7656 6.625 34.375 7.50391 34.8633 7.99219L38.4766 11.6055C38.7695 11.8984 39.2578 11.8984 39.5508 11.6055L43.1641 7.99219C43.6523 7.50391 43.2617 6.625 42.5781 6.625Z" fill="#4FC3F0"/>
</svg>
