<svg width="63" height="45" viewBox="0 0 63 45" fill="none" xmlns="http://www.w3.org/2000/svg">
<path d="M60.1562 31.625H2.34375C0.976562 31.625 0 32.6992 0 33.9688V35.5312C0 40.3164 3.80859 44.125 8.59375 44.125H53.9062C58.5938 44.125 62.5 40.3164 62.5 35.5312V33.9688C62.5 32.6992 61.4258 31.625 60.1562 31.625ZM53.9062 39.4375H8.59375C6.64062 39.4375 5.07812 38.168 4.6875 36.3125H57.7148C57.3242 38.168 55.7617 39.4375 53.9062 39.4375ZM10.9375 5.84375C10.9375 5.45312 11.2305 5.0625 11.7188 5.0625H50.7812C51.1719 5.0625 51.5625 5.45312 51.5625 5.84375V28.5H56.25V5.84375C56.25 2.91406 53.7109 0.375 50.7812 0.375H11.7188C8.69141 0.375 6.25 2.91406 6.25 5.84375V28.5H10.9375V5.84375ZM35.6445 22.9336C36.0352 23.3242 36.5234 23.4219 37.1094 23.4219C37.5977 23.4219 38.0859 23.3242 38.4766 22.9336L43.1641 18.2461C43.8477 17.4648 43.8477 16.1953 43.1641 15.4141L38.4766 10.7266C37.6953 10.043 36.4258 10.043 35.6445 10.7266C34.9609 11.5078 34.9609 12.7773 35.6445 13.5586L38.9648 16.7812L35.6445 20.1016C34.9609 20.8828 34.9609 22.1523 35.6445 22.9336ZM26.7578 10.7266C25.9766 10.043 24.707 10.043 23.9258 10.7266L19.2383 15.4141C18.5547 16.1953 18.5547 17.4648 19.2383 18.2461L23.9258 22.9336C24.3164 23.3242 24.8047 23.4219 25.3906 23.4219C25.8789 23.4219 26.3672 23.3242 26.7578 22.9336C27.4414 22.1523 27.4414 20.8828 26.7578 20.1016L23.4375 16.7812L26.7578 13.5586C27.4414 12.7773 27.4414 11.5078 26.7578 10.7266Z" fill="#E26CDE"/>
</svg>
