<svg width="51" height="52" viewBox="0 0 51 52" fill="none" xmlns="http://www.w3.org/2000/svg">
<path d="M35.9375 3.10547C38.0859 0.957031 41.5039 0.957031 43.6523 3.10547L48.1445 7.59766C50.293 9.74609 50.293 13.1641 48.1445 15.3125L40.2344 23.2227L36.2305 37.8711C35.7422 39.5312 34.4727 40.9961 32.8125 41.582L6.93359 50.5664C5.17578 51.25 3.125 50.7617 1.85547 49.3945C0.488281 48.125 0 46.0742 0.585938 44.2188L9.66797 18.4375C10.2539 16.7773 11.7188 15.5078 13.3789 15.0195L27.9297 11.0156L35.9375 3.10547ZM28.9062 15.6055L14.6484 19.5117C14.3555 19.6094 14.1602 19.8047 14.1602 20L6.05469 42.9492L16.0156 32.9883C15.7227 32.4023 15.625 31.7188 15.625 30.9375C15.625 28.3984 17.6758 26.25 20.3125 26.25C22.8516 26.25 25 28.3984 25 30.9375C25 33.5742 22.8516 35.625 20.3125 35.625C19.5312 35.625 18.8477 35.5273 18.2617 35.2344L8.30078 45.1953L31.25 37.0898C31.4453 37.0898 31.6406 36.7969 31.7383 36.6016L35.6445 22.3438L28.9062 15.6055Z" fill="#8E95BA"/>
</svg>
