<svg width="50" height="45" viewBox="0 0 50 45" fill="none" xmlns="http://www.w3.org/2000/svg">
<path d="M6.25 0.375C9.66797 0.375 12.5 3.20703 12.5 6.625C12.5 10.1406 9.66797 12.875 6.25 12.875C2.73438 12.875 0 10.1406 0 6.625C0 3.20703 2.73438 0.375 6.25 0.375ZM47.6562 4.28125C48.9258 4.28125 50 5.35547 50 6.625C50 7.99219 48.9258 8.96875 47.6562 8.96875H17.9688C16.6016 8.96875 15.625 7.99219 15.625 6.625C15.625 5.35547 16.6016 4.28125 17.9688 4.28125H47.6562ZM47.6562 19.9062C48.9258 19.9062 50 20.9805 50 22.25C50 23.6172 48.9258 24.5938 47.6562 24.5938H17.9688C16.6016 24.5938 15.625 23.6172 15.625 22.25C15.625 20.9805 16.6016 19.9062 17.9688 19.9062H47.6562ZM47.6562 35.5312C48.9258 35.5312 50 36.6055 50 37.875C50 39.2422 48.9258 40.2188 47.6562 40.2188H17.9688C16.6016 40.2188 15.625 39.2422 15.625 37.875C15.625 36.6055 16.6016 35.5312 17.9688 35.5312H47.6562ZM6.25 16C9.66797 16 12.5 18.832 12.5 22.25C12.5 25.7656 9.66797 28.5 6.25 28.5C2.73438 28.5 0 25.7656 0 22.25C0 18.832 2.73438 16 6.25 16ZM3.90625 22.25C3.90625 23.6172 4.88281 24.5938 6.25 24.5938C7.51953 24.5938 8.59375 23.6172 8.59375 22.25C8.59375 20.9805 7.51953 19.9062 6.25 19.9062C4.88281 19.9062 3.90625 20.9805 3.90625 22.25ZM6.25 44.125C2.73438 44.125 0 41.3906 0 37.875C0 34.457 2.73438 31.625 6.25 31.625C9.66797 31.625 12.5 34.457 12.5 37.875C12.5 41.3906 9.66797 44.125 6.25 44.125ZM8.59375 37.875C8.59375 36.6055 7.51953 35.5312 6.25 35.5312C4.88281 35.5312 3.90625 36.6055 3.90625 37.875C3.90625 39.2422 4.88281 40.2188 6.25 40.2188C7.51953 40.2188 8.59375 39.2422 8.59375 37.875Z" fill="#7575CE"/>
</svg>
