<svg xmlns="http://www.w3.org/2000/svg" version="1.0" width="400.000000" height="400.000000" preserveAspectRatio="xMidYMid meet"><rect id="backgroundrect" width="100%" height="100%" x="0" y="0" fill="none" stroke="none"/>


<g class="currentLayer" style=""><title>Layer 1</title><g transform="translate(0,400) scale(0.10000000149011612,-0.10000000149011612) " fill="#d31b1b" stroke="none" id="svg_1" class="" fill-opacity="1">
<path d="M1770 3990 c-682 -83 -1271 -501 -1570 -1115 -103 -211 -167 -437 -191 -673 -14 -129 -6 -404 14 -522 85 -495 339 -929 729 -1242 232 -187 539 -332 836 -393 957 -199 1909 314 2272 1224 204 512 180 1116 -64 1606 -115 232 -229 387 -412 565 -296 286 -639 460 -1059 536 -106 19 -443 27 -555 14z m-998 -1105 c3 -3 -23 -48 -57 -99 -113 -172 -182 -338 -226 -546 -32 -149 -33 -448 -1 -593 31 -145 70 -258 134 -387 65 -132 64 -140 -28 -140 -66 0 -100 13 -143 53 -74 70 -71 38 -71 748 0 555 2 642 16 690 43 144 129 236 248 265 54 13 119 18 128 9z m2621 -21 c99 -34 192 -157 216 -288 14 -78 15 -1256 1 -1307 -13 -48 -82 -125 -124 -139 -55 -18 -166 -12 -166 9 0 4 25 57 55 118 195 391 215 839 55 1247 -41 105 -117 247 -176 327 -18 25 -30 49 -26 54 10 11 109 -2 165 -21z m-251 -61 c128 -170 217 -370 265 -594 13 -63 18 -129 18 -264 0 -199 -13 -285 -66 -448 -33 -101 -114 -277 -128 -277 -26 0 -31 80 -32 549 0 267 -4 495 -8 505 -6 16 -20 4 -87 -77 -43 -53 -81 -96 -84 -96 -3 -1 -16 41 -29 92 -27 106 -74 215 -132 304 -32 48 -38 66 -31 80 34 61 243 273 271 273 4 0 23 -21 43 -47z m-2206 15 c52 -39 95 -82 171 -170 l74 -88 -42 -61 c-23 -34 -54 -89 -69 -123 -35 -76 -80 -219 -80 -252 0 -13 -4 -24 -8 -24 -4 0 -43 43 -87 95 -43 52 -83 95 -87 95 -4 0 -8 -224 -9 -497 0 -492 -5 -565 -34 -565 -16 0 -94 166 -130 279 -52 159 -69 294 -62 493 8 230 47 384 147 585 56 112 154 255 174 255 7 0 26 -10 42 -22z m458 -511 l133 -157 -20 -58 c-13 -39 -19 -85 -19 -147 -1 -150 44 -260 151 -365 107 -105 214 -150 361 -150 241 0 443 162 500 399 16 69 8 222 -15 278 l-17 43 132 157 c73 87 136 159 140 161 24 9 119 -186 148 -303 11 -44 22 -104 25 -134 l4 -54 -329 -388 c-343 -405 -362 -424 -466 -455 -101 -31 -258 -12 -341 41 -48 29 -83 69 -607 691 -52 62 -94 121 -94 131 0 52 33 202 60 271 33 86 99 204 112 200 5 -2 68 -74 142 -161z m376 -444 c85 -102 167 -194 182 -204 62 -45 81 -30 292 224 76 92 142 165 146 162 13 -8 20 -110 10 -167 -27 -170 -153 -299 -324 -334 -130 -27 -257 9 -356 102 -61 57 -116 162 -125 239 -8 57 1 165 13 164 4 0 77 -84 162 -186z" id="svg_2" fill="#d31b1b" fill-opacity="1"/>
</g></g></svg>